<?xml version="1.0" ?><svg enable-background="new 0 0 512 512" id="Layer_1" version="1.1" viewBox="0 0 512 512" xml:space="preserve" xmlns="http://www.w3.org/2000/svg" xmlns:xlink="http://www.w3.org/1999/xlink"><g><g><linearGradient gradientUnits="userSpaceOnUse" id="SVGID_1_" x1="-0.0000027" x2="512" y1="256" y2="256"><stop offset="0" style="stop-color:#95A5A6"/><stop offset="1" style="stop-color:#7F8C8D"/></linearGradient><circle cx="256" cy="256" fill="url(#SVGID_1_)" r="256"/><linearGradient gradientUnits="userSpaceOnUse" id="SVGID_2_" x1="42.6666641" x2="469.3333435" y1="256.0005188" y2="256.0005188"><stop offset="0" style="stop-color:#7F8C8D"/><stop offset="1" style="stop-color:#95A5A6"/></linearGradient><path d="M256,469.3338623c-117.631012,0-213.3333435-95.7018738-213.3333435-213.3333435    c0-117.6309204,95.7023239-213.333313,213.3333435-213.333313c117.6362,0,213.3333435,95.7024002,213.3333435,213.333313    C469.3333435,373.6319885,373.6362,469.3338623,256,469.3338623z" fill="url(#SVGID_2_)"/></g><g><path d="M314.8345947,167.0138702h-27.7941284C287.0404663,154.2799988,276.7593994,144,264.0271301,144    c-12.7349396,0-23.0133362,10.2799988-23.0133362,23.0138702h-27.7957306v39.8511963h101.6165314V167.0138702z" opacity="0.3"/><path d="M324.6271362,181.7263947v34.9349365H203.4223175v-34.9349365h-35.2693329V384h191.694397V181.7263947    H324.6271362z M299.359375,350.2655945h-70.7071838v-9.7957153h70.7071838V350.2655945z M332.0073853,317.2063904H196.0015259    v-9.7951965h136.0058594V317.2063904z M332.0073853,284.1471863H196.0015259v-9.7951965h136.0058594V284.1471863z     M332.0073853,251.0879974H196.0015259v-9.7951965h136.0058594V251.0879974z" opacity="0.3"/></g><g><path d="M306.8345947,159.0138702h-27.7941284C279.0404663,146.2799988,268.7593994,136,256.0271301,136    c-12.7349396,0-23.0133362,10.2799988-23.0133362,23.0138702h-27.7957306v39.8511963h101.6165314V159.0138702z" fill="#FFFFFF"/><path d="M316.6271362,173.7263947v34.9349365H195.4223175v-34.9349365h-35.2693329V376h191.694397V173.7263947    H316.6271362z M291.359375,342.2655945h-70.7071838v-9.7957153h70.7071838V342.2655945z M324.0073853,309.2063904H188.0015259    v-9.7951965h136.0058594V309.2063904z M324.0073853,276.1471863H188.0015259v-9.7951965h136.0058594V276.1471863z     M324.0073853,243.0879974H188.0015259v-9.7951965h136.0058594V243.0879974z" fill="#FFFFFF"/></g></g></svg>